<svg xmlns="http://www.w3.org/2000/svg" xmlns:xlink="http://www.w3.org/1999/xlink" id="Capa_1" x="0" y="0" version="1.1" viewBox="0 0 52 52" style="enable-background:new 0 0 52 52" xml:space="preserve"><g><path style="fill:#5e4f11" d="M40.824,52H11.176C5.003,52,0,46.997,0,40.824V11.176C0,5.003,5.003,0,11.176,0h29.649 C46.997,0,52,5.003,52,11.176v29.649C52,46.997,46.997,52,40.824,52z"/><g><path style="fill:#e7eb00" d="M10.88,39H8V11h13.36v2.8H10.88v8.681h6.48l-1.08,2.8h-5.4V39z"/><path style="fill:#e7eb00" d="M39.72,39h-3.44L32.6,24.44L28.88,39h-3.44L19.2,18.96h3.08l4.84,16.08l4.12-16.08h2.84l4.12,16.08 l4.72-16.08H46L39.72,39z"/></g></g></svg>